<?xml version="1.0" encoding="UTF-8"?><svg xmlns="http://www.w3.org/2000/svg" xmlns:xlink="http://www.w3.org/1999/xlink" fill-opacity="1" color-rendering="auto" color-interpolation="auto" text-rendering="auto" stroke="black" stroke-linecap="square" width="1110" stroke-miterlimit="10" shape-rendering="auto" stroke-opacity="1" fill="black" stroke-dasharray="none" font-weight="normal" stroke-width="1" height="492" font-family="'Dialog'" font-style="normal" stroke-linejoin="miter" font-size="12" stroke-dashoffset="0" image-rendering="auto">
  <!--Generated by ySVG 2.5-->
  <defs id="genericDefs"/>
  <g>
    <defs id="defs1">
      <clipPath clipPathUnits="userSpaceOnUse" id="clipPath1">
        <path d="M0 0 L1110 0 L1110 492 L0 492 L0 0 Z"/>
      </clipPath>
      <clipPath clipPathUnits="userSpaceOnUse" id="clipPath2">
        <path d="M-299 183 L811 183 L811 675 L-299 675 L-299 183 Z"/>
      </clipPath>
    </defs>
    <g text-rendering="geometricPrecision" stroke-miterlimit="1.45" shape-rendering="geometricPrecision" font-family="sans-serif" transform="matrix(1,0,0,1,299,-183)" stroke-linecap="butt">
      <text x="-279.0234" xml:space="preserve" y="252.1543" clip-path="url(#clipPath2)" stroke="none">input plugins*</text>
    </g>
    <g fill="rgb(153,204,255)" text-rendering="geometricPrecision" shape-rendering="geometricPrecision" transform="matrix(1,0,0,1,299,-183)" stroke="rgb(153,204,255)">
      <rect x="-272" y="268" clip-path="url(#clipPath2)" width="70" rx="4" ry="4" height="30" stroke="none"/>
    </g>
    <g text-rendering="geometricPrecision" stroke-miterlimit="1.45" shape-rendering="geometricPrecision" font-family="sans-serif" transform="matrix(1,0,0,1,299,-183)" stroke-linecap="butt">
      <text x="-249.6299" xml:space="preserve" y="287.1543" clip-path="url(#clipPath2)" stroke="none">UDP</text>
      <rect x="-272" y="268" clip-path="url(#clipPath2)" fill="none" width="70" rx="4" ry="4" height="30"/>
    </g>
    <g fill="rgb(153,204,255)" text-rendering="geometricPrecision" shape-rendering="geometricPrecision" transform="matrix(1,0,0,1,299,-183)" stroke="rgb(153,204,255)">
      <rect x="-272" y="313" clip-path="url(#clipPath2)" width="70" rx="4" ry="4" height="30" stroke="none"/>
    </g>
    <g text-rendering="geometricPrecision" stroke-miterlimit="1.45" shape-rendering="geometricPrecision" font-family="sans-serif" transform="matrix(1,0,0,1,299,-183)" stroke-linecap="butt">
      <text x="-248.4727" xml:space="preserve" y="332.1543" clip-path="url(#clipPath2)" stroke="none">TCP</text>
      <rect x="-272" y="313" clip-path="url(#clipPath2)" fill="none" width="70" rx="4" ry="4" height="30"/>
    </g>
    <g fill="rgb(153,204,255)" text-rendering="geometricPrecision" shape-rendering="geometricPrecision" transform="matrix(1,0,0,1,299,-183)" stroke="rgb(153,204,255)">
      <rect x="-272" y="358" clip-path="url(#clipPath2)" width="70" rx="4" ry="4" height="30" stroke="none"/>
    </g>
    <g text-rendering="geometricPrecision" stroke-miterlimit="1.45" shape-rendering="geometricPrecision" font-family="sans-serif" transform="matrix(1,0,0,1,299,-183)" stroke-linecap="butt">
      <text x="-252.2812" xml:space="preserve" y="377.1543" clip-path="url(#clipPath2)" stroke="none">SCTP</text>
      <rect x="-272" y="358" clip-path="url(#clipPath2)" fill="none" width="70" rx="4" ry="4" height="30"/>
    </g>
    <g fill="rgb(153,204,255)" text-rendering="geometricPrecision" shape-rendering="geometricPrecision" transform="matrix(1,0,0,1,299,-183)" stroke="rgb(153,204,255)">
      <rect x="-272" y="403" clip-path="url(#clipPath2)" width="70" rx="4" ry="4" height="30" stroke="none"/>
    </g>
    <g text-rendering="geometricPrecision" stroke-miterlimit="1.45" shape-rendering="geometricPrecision" font-family="sans-serif" transform="matrix(1,0,0,1,299,-183)" stroke-linecap="butt">
      <text x="-261.3105" xml:space="preserve" y="422.1543" clip-path="url(#clipPath2)" stroke="none">TLS\TCP</text>
      <rect x="-272" y="403" clip-path="url(#clipPath2)" fill="none" width="70" rx="4" ry="4" height="30"/>
    </g>
    <g fill="rgb(153,204,255)" text-rendering="geometricPrecision" shape-rendering="geometricPrecision" transform="matrix(1,0,0,1,299,-183)" stroke="rgb(153,204,255)">
      <rect x="-272" y="448" clip-path="url(#clipPath2)" width="70" rx="4" ry="4" height="30" stroke="none"/>
    </g>
    <g text-rendering="geometricPrecision" stroke-miterlimit="1.45" shape-rendering="geometricPrecision" font-family="sans-serif" transform="matrix(1,0,0,1,299,-183)" stroke-linecap="butt">
      <text x="-262.7637" xml:space="preserve" y="467.1543" clip-path="url(#clipPath2)" stroke="none">IPFIX file</text>
      <rect x="-272" y="448" clip-path="url(#clipPath2)" fill="none" width="70" rx="4" ry="4" height="30"/>
    </g>
    <g fill="rgb(153,204,255)" text-rendering="geometricPrecision" shape-rendering="geometricPrecision" transform="matrix(1,0,0,1,299,-183)" stroke="rgb(153,204,255)">
      <rect x="-272" y="493" clip-path="url(#clipPath2)" width="70" rx="4" ry="4" height="30" stroke="none"/>
    </g>
    <g text-rendering="geometricPrecision" stroke-miterlimit="1.45" shape-rendering="geometricPrecision" font-family="sans-serif" transform="matrix(1,0,0,1,299,-183)" stroke-linecap="butt">
      <text x="-261.2285" xml:space="preserve" y="512.1543" clip-path="url(#clipPath2)" stroke="none">NetFlow</text>
      <rect x="-272" y="493" clip-path="url(#clipPath2)" fill="none" width="70" rx="4" ry="4" height="30"/>
      <text x="-243.8379" xml:space="preserve" y="542.1543" clip-path="url(#clipPath2)" font-weight="bold" stroke="none">...</text>
      <text x="-205.2207" xml:space="preserve" font-size="14" y="217.8467" clip-path="url(#clipPath2)" stroke="none">INPUT API</text>
    </g>
    <g fill="rgb(255,255,153)" text-rendering="geometricPrecision" shape-rendering="geometricPrecision" transform="matrix(1,0,0,1,299,-183)" stroke="rgb(255,255,153)">
      <rect x="-151" y="358" clip-path="url(#clipPath2)" width="142" rx="4" ry="4" height="54" stroke="none"/>
    </g>
    <g stroke-linecap="butt" transform="matrix(1,0,0,1,299,-183)" text-rendering="geometricPrecision" font-family="sans-serif" shape-rendering="geometricPrecision" font-weight="bold" stroke-miterlimit="1.45">
      <text x="-144.3271" xml:space="preserve" y="389.1543" clip-path="url(#clipPath2)" stroke="none">IPFIX Preprocessor</text>
      <rect x="-151" y="358" clip-path="url(#clipPath2)" fill="none" width="142" rx="4" ry="4" height="54"/>
      <text x="574.9722" font-size="14" y="217.8467" clip-path="url(#clipPath2)" stroke="none" font-weight="normal" xml:space="preserve">STORAGE API</text>
      <text x="87.9331" font-size="14" y="217.8467" clip-path="url(#clipPath2)" stroke="none" font-weight="normal" xml:space="preserve">INTERMEDIATE API</text>
      <text x="91.1973" xml:space="preserve" y="252.1543" clip-path="url(#clipPath2)" font-weight="normal" stroke="none">intermediate plugins</text>
      <text x="678.6172" xml:space="preserve" y="252.1543" clip-path="url(#clipPath2)" font-weight="normal" stroke="none">storage plugins</text>
    </g>
    <g fill="rgb(255,204,204)" text-rendering="geometricPrecision" shape-rendering="geometricPrecision" transform="matrix(1,0,0,1,299,-183)" stroke="rgb(255,204,204)">
      <rect x="47" y="368" clip-path="url(#clipPath2)" width="70" rx="4" ry="4" height="30" stroke="none"/>
    </g>
    <g text-rendering="geometricPrecision" stroke-miterlimit="1.45" shape-rendering="geometricPrecision" font-family="sans-serif" transform="matrix(1,0,0,1,299,-183)" stroke-linecap="butt">
      <text x="55.709" xml:space="preserve" y="387.1543" clip-path="url(#clipPath2)" stroke="none">joinflows</text>
      <rect x="47" y="368" clip-path="url(#clipPath2)" fill="none" width="70" rx="4" ry="4" height="30"/>
    </g>
    <g fill="rgb(255,204,204)" text-rendering="geometricPrecision" shape-rendering="geometricPrecision" transform="matrix(1,0,0,1,299,-183)" stroke="rgb(255,204,204)">
      <rect x="142" y="368" clip-path="url(#clipPath2)" width="70" rx="4" ry="4" height="30" stroke="none"/>
    </g>
    <g text-rendering="geometricPrecision" stroke-miterlimit="1.45" shape-rendering="geometricPrecision" font-family="sans-serif" transform="matrix(1,0,0,1,299,-183)" stroke-linecap="butt">
      <text x="163.043" xml:space="preserve" y="387.1543" clip-path="url(#clipPath2)" stroke="none">filter</text>
      <rect x="142" y="368" clip-path="url(#clipPath2)" fill="none" width="70" rx="4" ry="4" height="30"/>
      <text x="250.6621" xml:space="preserve" y="387.1543" clip-path="url(#clipPath2)" font-weight="bold" stroke="none">...</text>
    </g>
    <g fill="rgb(255,255,153)" text-rendering="geometricPrecision" shape-rendering="geometricPrecision" transform="matrix(1,0,0,1,299,-183)" stroke="rgb(255,255,153)">
      <rect x="309" y="356" clip-path="url(#clipPath2)" width="120" rx="4" ry="4" height="54" stroke="none"/>
    </g>
    <g stroke-linecap="butt" transform="matrix(1,0,0,1,299,-183)" text-rendering="geometricPrecision" font-family="sans-serif" shape-rendering="geometricPrecision" font-weight="bold" stroke-miterlimit="1.45">
      <text x="313.5732" xml:space="preserve" y="387.1543" clip-path="url(#clipPath2)" stroke="none">Output Manager</text>
      <rect x="309" y="356" clip-path="url(#clipPath2)" fill="none" width="120" rx="4" ry="4" height="54"/>
    </g>
    <g fill="rgb(204,255,204)" text-rendering="geometricPrecision" shape-rendering="geometricPrecision" transform="matrix(1,0,0,1,299,-183)" stroke="rgb(204,255,204)">
      <rect x="654" y="268" clip-path="url(#clipPath2)" width="142" rx="4" ry="4" height="30" stroke="none"/>
    </g>
    <g text-rendering="geometricPrecision" stroke-miterlimit="1.45" shape-rendering="geometricPrecision" font-family="sans-serif" transform="matrix(1,0,0,1,299,-183)" stroke-linecap="butt">
      <text x="671.1816" xml:space="preserve" y="287.1543" clip-path="url(#clipPath2)" stroke="none">FastBit file format</text>
      <rect x="654" y="268" clip-path="url(#clipPath2)" fill="none" width="142" rx="4" ry="4" height="30"/>
    </g>
    <g fill="rgb(204,255,204)" text-rendering="geometricPrecision" shape-rendering="geometricPrecision" transform="matrix(1,0,0,1,299,-183)" stroke="rgb(204,255,204)">
      <rect x="654" y="313" clip-path="url(#clipPath2)" width="142" rx="4" ry="4" height="30" stroke="none"/>
    </g>
    <g text-rendering="geometricPrecision" stroke-miterlimit="1.45" shape-rendering="geometricPrecision" font-family="sans-serif" transform="matrix(1,0,0,1,299,-183)" stroke-linecap="butt">
      <text x="677.2051" xml:space="preserve" y="332.1543" clip-path="url(#clipPath2)" stroke="none">IPFIX file format</text>
      <rect x="654" y="313" clip-path="url(#clipPath2)" fill="none" width="142" rx="4" ry="4" height="30"/>
    </g>
    <g fill="rgb(204,255,204)" text-rendering="geometricPrecision" shape-rendering="geometricPrecision" transform="matrix(1,0,0,1,299,-183)" stroke="rgb(204,255,204)">
      <rect x="654" y="501" clip-path="url(#clipPath2)" width="142" rx="4" ry="4" height="30" stroke="none"/>
    </g>
    <g text-rendering="geometricPrecision" stroke-miterlimit="1.45" shape-rendering="geometricPrecision" font-family="sans-serif" transform="matrix(1,0,0,1,299,-183)" stroke-linecap="butt">
      <text x="692.6123" xml:space="preserve" y="520.1543" clip-path="url(#clipPath2)" stroke="none">forwarding</text>
      <rect x="654" y="501" clip-path="url(#clipPath2)" fill="none" width="142" rx="4" ry="4" height="30"/>
    </g>
    <g fill="rgb(204,255,204)" text-rendering="geometricPrecision" shape-rendering="geometricPrecision" transform="matrix(1,0,0,1,299,-183)" stroke="rgb(204,255,204)">
      <rect x="654" y="403" clip-path="url(#clipPath2)" width="142" rx="4" ry="4" height="30" stroke="none"/>
    </g>
    <g text-rendering="geometricPrecision" stroke-miterlimit="1.45" shape-rendering="geometricPrecision" font-family="sans-serif" transform="matrix(1,0,0,1,299,-183)" stroke-linecap="butt">
      <text x="671.1816" xml:space="preserve" y="422.1543" clip-path="url(#clipPath2)" stroke="none">FastBit file format</text>
      <rect x="654" y="403" clip-path="url(#clipPath2)" fill="none" width="142" rx="4" ry="4" height="30"/>
    </g>
    <g fill="rgb(204,255,204)" text-rendering="geometricPrecision" shape-rendering="geometricPrecision" transform="matrix(1,0,0,1,299,-183)" stroke="rgb(204,255,204)">
      <rect x="654" y="452" clip-path="url(#clipPath2)" width="142" rx="4" ry="4" height="30" stroke="none"/>
    </g>
    <g text-rendering="geometricPrecision" stroke-miterlimit="1.45" shape-rendering="geometricPrecision" font-family="sans-serif" transform="matrix(1,0,0,1,299,-183)" stroke-linecap="butt">
      <text x="698.2549" xml:space="preserve" y="471.1543" clip-path="url(#clipPath2)" stroke="none">statistics</text>
      <rect x="654" y="452" clip-path="url(#clipPath2)" fill="none" width="142" rx="4" ry="4" height="30"/>
      <text x="718.1621" xml:space="preserve" y="550.1543" clip-path="url(#clipPath2)" font-weight="bold" stroke="none">...</text>
      <text x="-267.2822" xml:space="preserve" y="649.1543" clip-path="url(#clipPath2)" stroke="none">* Select one for IPFIX Preprocessor</text>
    </g>
    <g fill="rgb(255,255,153)" text-rendering="geometricPrecision" shape-rendering="geometricPrecision" transform="matrix(1,0,0,1,299,-183)" stroke="rgb(255,255,153)">
      <rect x="-151" y="551" clip-path="url(#clipPath2)" width="753" rx="4" ry="4" height="54" stroke="none"/>
    </g>
    <g stroke-linecap="butt" transform="matrix(1,0,0,1,299,-183)" text-rendering="geometricPrecision" font-family="sans-serif" shape-rendering="geometricPrecision" font-weight="bold" stroke-miterlimit="1.45">
      <text x="161.9961" xml:space="preserve" y="582.1543" clip-path="url(#clipPath2)" stroke="none">Template Manager</text>
      <rect x="-151" y="551" clip-path="url(#clipPath2)" fill="none" width="753" rx="4" ry="4" height="54"/>
    </g>
    <g fill="rgb(255,204,153)" text-rendering="geometricPrecision" shape-rendering="geometricPrecision" transform="matrix(1,0,0,1,299,-183)" stroke="rgb(255,204,153)">
      <rect x="460" y="272" clip-path="url(#clipPath2)" width="142" rx="4" ry="4" height="54" stroke="none"/>
    </g>
    <g stroke-linecap="butt" transform="matrix(1,0,0,1,299,-183)" text-rendering="geometricPrecision" font-family="sans-serif" shape-rendering="geometricPrecision" font-weight="bold" stroke-miterlimit="1.45">
      <text x="481.2129" xml:space="preserve" y="289.1855" clip-path="url(#clipPath2)" stroke="none">Data Manager </text>
      <text x="475.8574" xml:space="preserve" y="303.1543" clip-path="url(#clipPath2)" stroke="none">for Observation </text>
      <text x="499.0049" xml:space="preserve" y="317.123" clip-path="url(#clipPath2)" stroke="none">Domain 1</text>
      <rect x="460" y="272" clip-path="url(#clipPath2)" fill="none" width="142" rx="4" ry="4" height="54"/>
    </g>
    <g fill="rgb(255,204,153)" text-rendering="geometricPrecision" shape-rendering="geometricPrecision" transform="matrix(1,0,0,1,299,-183)" stroke="rgb(255,204,153)">
      <rect x="460" y="440" clip-path="url(#clipPath2)" width="142" rx="4" ry="4" height="54" stroke="none"/>
    </g>
    <g stroke-linecap="butt" transform="matrix(1,0,0,1,299,-183)" text-rendering="geometricPrecision" font-family="sans-serif" shape-rendering="geometricPrecision" font-weight="bold" stroke-miterlimit="1.45">
      <text x="481.2129" xml:space="preserve" y="457.1855" clip-path="url(#clipPath2)" stroke="none">Data Manager </text>
      <text x="475.8574" xml:space="preserve" y="471.1543" clip-path="url(#clipPath2)" stroke="none">for Observation </text>
      <text x="498.9082" xml:space="preserve" y="485.123" clip-path="url(#clipPath2)" stroke="none">Domain n</text>
      <rect x="460" y="440" clip-path="url(#clipPath2)" fill="none" width="142" rx="4" ry="4" height="54"/>
      <text x="524.1621" xml:space="preserve" y="387.1543" clip-path="url(#clipPath2)" stroke="none">...</text>
      <text x="718.1621" xml:space="preserve" y="377.1543" clip-path="url(#clipPath2)" stroke="none">...</text>
    </g>
    <g stroke-linecap="butt" transform="matrix(1,0,0,1,299,-183)" text-rendering="geometricPrecision" shape-rendering="geometricPrecision" stroke-dasharray="12,4" stroke-width="2" stroke-miterlimit="1.45">
      <path fill="none" d="M-171 228 L-171 538" clip-path="url(#clipPath2)"/>
      <path fill="none" d="M27 228 L27 538" clip-path="url(#clipPath2)"/>
      <path fill="none" d="M280 228 L280 538" clip-path="url(#clipPath2)"/>
      <path fill="none" d="M622 228 L622 538" clip-path="url(#clipPath2)"/>
      <path fill="none" stroke-dasharray="none" d="M-9.0063 384.1235 L39.0289 383.5305" stroke-width="1" clip-path="url(#clipPath2)"/>
      <path stroke-dasharray="none" d="M47.0283 383.4318 L34.9675 378.5803 L38.029 383.5428 L35.091 388.5795 Z" stroke-width="1" clip-path="url(#clipPath2)" stroke="none"/>
      <path fill="none" stroke-dasharray="none" d="M117.022 383 L134.0031 383" stroke-width="1" clip-path="url(#clipPath2)"/>
      <path stroke-dasharray="none" d="M142.0031 383 L130.0031 378 L133.0031 383 L130.0031 388 Z" stroke-width="1" clip-path="url(#clipPath2)" stroke="none"/>
      <path fill="none" stroke-dasharray="none" d="M212.0222 383 L237 383" stroke-width="1" clip-path="url(#clipPath2)"/>
      <path stroke-dasharray="none" d="M245 383 L233 378 L236 383 L233 388 Z" stroke-width="1" clip-path="url(#clipPath2)" stroke="none"/>
      <path fill="none" stroke-dasharray="none" d="M212.0054 383 L237.0101 383" stroke-width="1" clip-path="url(#clipPath2)"/>
      <path stroke-dasharray="none" d="M245.0101 383 L233.0101 378 L236.0101 383 L233.0101 388 Z" stroke-width="1" clip-path="url(#clipPath2)" stroke="none"/>
      <path fill="none" stroke-dasharray="none" d="M270 383 L301.0103 383" stroke-width="1" clip-path="url(#clipPath2)"/>
      <path stroke-dasharray="none" d="M309.0103 383 L297.0103 378 L300.0103 383 L297.0103 388 Z" stroke-width="1" clip-path="url(#clipPath2)" stroke="none"/>
      <path fill="none" stroke-dasharray="6,2" d="M-80 419.9764 L-80 542.994" stroke-width="1" clip-path="url(#clipPath2)"/>
      <path stroke-dasharray="6,2" d="M-80 411.9764 L-85 423.9764 L-80 420.9764 L-75 423.9764 Z" stroke-width="1" clip-path="url(#clipPath2)" stroke="none"/>
      <path stroke-dasharray="6,2" d="M-80 550.994 L-75 538.994 L-80 541.994 L-85 538.994 Z" stroke-width="1" clip-path="url(#clipPath2)" stroke="none"/>
      <path fill="none" stroke-dasharray="6,2" d="M82 406.0223 L82 543.0084" stroke-width="1" clip-path="url(#clipPath2)"/>
      <path stroke-dasharray="6,2" d="M82 398.0223 L77 410.0223 L82 407.0223 L87 410.0223 Z" stroke-width="1" clip-path="url(#clipPath2)" stroke="none"/>
      <path stroke-dasharray="6,2" d="M82 551.0084 L87 539.0084 L82 542.0084 L77 539.0084 Z" stroke-width="1" clip-path="url(#clipPath2)" stroke="none"/>
      <path fill="none" stroke-dasharray="6,2" d="M177 406.036 L177 542.9902" stroke-width="1" clip-path="url(#clipPath2)"/>
      <path stroke-dasharray="6,2" d="M177 398.036 L172 410.036 L177 407.036 L182 410.036 Z" stroke-width="1" clip-path="url(#clipPath2)" stroke="none"/>
      <path stroke-dasharray="6,2" d="M177 550.9902 L182 538.9902 L177 541.9902 L172 538.9902 Z" stroke-width="1" clip-path="url(#clipPath2)" stroke="none"/>
      <path fill="none" stroke-dasharray="6,2" d="M369 418.0319 L369 542.9622" stroke-width="1" clip-path="url(#clipPath2)"/>
      <path stroke-dasharray="6,2" d="M369 410.0319 L364 422.0319 L369 419.0319 L374 422.0319 Z" stroke-width="1" clip-path="url(#clipPath2)" stroke="none"/>
      <path stroke-dasharray="6,2" d="M369 550.9622 L374 538.9622 L369 541.9622 L364 538.9622 Z" stroke-width="1" clip-path="url(#clipPath2)" stroke="none"/>
      <path fill="none" stroke-dasharray="none" d="M429.0005 382.959 L457.2198 306.5456" stroke-width="1" clip-path="url(#clipPath2)"/>
      <path stroke-dasharray="none" d="M459.9912 299.041 L451.1437 308.5658 L456.8734 307.4837 L460.5244 312.03 Z" stroke-width="1" clip-path="url(#clipPath2)" stroke="none"/>
      <path fill="none" stroke-dasharray="none" d="M602.019 298.9922 L646.3346 285.36" stroke-width="1" clip-path="url(#clipPath2)"/>
      <path stroke-dasharray="none" d="M653.981 283.0078 L641.0413 281.7571 L645.3788 285.654 L643.9815 291.3151 Z" stroke-width="1" clip-path="url(#clipPath2)" stroke="none"/>
      <path fill="none" stroke-dasharray="none" d="M602.019 299.0142 L646.9937 324.09" stroke-width="1" clip-path="url(#clipPath2)"/>
      <path stroke-dasharray="none" d="M653.981 327.9858 L645.9349 317.775 L646.1202 323.6031 L641.0651 326.5092 Z" stroke-width="1" clip-path="url(#clipPath2)" stroke="none"/>
      <path fill="none" stroke-dasharray="none" d="M429.0005 383.041 L457.2198 459.4544" stroke-width="1" clip-path="url(#clipPath2)"/>
      <path stroke-dasharray="none" d="M459.9912 466.959 L460.5244 453.97 L456.8734 458.5163 L451.1437 457.4342 Z" stroke-width="1" clip-path="url(#clipPath2)" stroke="none"/>
      <path fill="none" stroke-dasharray="none" d="M602.019 466.9761 L648.158 423.5096" stroke-width="1" clip-path="url(#clipPath2)"/>
      <path stroke-dasharray="none" d="M653.981 418.0239 L641.8179 422.6131 L647.4301 424.1953 L648.675 429.8918 Z" stroke-width="1" clip-path="url(#clipPath2)" stroke="none"/>
      <path fill="none" stroke-dasharray="none" d="M602.019 467 L645.981 467" stroke-width="1" clip-path="url(#clipPath2)"/>
      <path stroke-dasharray="none" d="M653.981 467 L641.981 462 L644.981 467 L641.981 472 Z" stroke-width="1" clip-path="url(#clipPath2)" stroke="none"/>
      <path fill="none" stroke-dasharray="none" d="M602.019 467.0239 L648.158 510.4904" stroke-width="1" clip-path="url(#clipPath2)"/>
      <path stroke-dasharray="none" d="M653.981 515.9761 L648.675 504.1082 L647.4301 509.8047 L641.8179 511.3869 Z" stroke-width="1" clip-path="url(#clipPath2)" stroke="none"/>
      <path fill="none" stroke-dasharray="6,2" d="M531 501.9989 L531 542.9857" stroke-width="1" clip-path="url(#clipPath2)"/>
      <path stroke-dasharray="6,2" d="M531 493.9989 L526 505.9989 L531 502.9989 L536 505.9989 Z" stroke-width="1" clip-path="url(#clipPath2)" stroke="none"/>
      <path stroke-dasharray="6,2" d="M531 550.9857 L536 538.9857 L531 541.9857 L526 538.9857 Z" stroke-width="1" clip-path="url(#clipPath2)" stroke="none"/>
    </g>
  </g>
</svg>
